<?xml version="1.0"?>
<svg xmlns="http://www.w3.org/2000/svg" height="512px" viewBox="0 0 64 64" width="512px"><path d="m61.9 54.553-5.9-11.789v-31.764a3 3 0 0 0 -3-3h-9.527a13.969 13.969 0 0 0 -22.946 0h-9.527a3 3 0 0 0 -3 3v31.764l-5.895 11.789a1 1 0 0 0 -.105.447v5a2 2 0 0 0 2 2h56a2 2 0 0 0 2-2v-5a1 1 0 0 0 -.1-.447zm-32.9 1.447h6v1h-6zm-24.382-2 5-10h44.764l5 10zm20.545-47.842.971 1.682 1.732-1-.973-1.686a11.9 11.9 0 0 1 4.107-1.106v1.952h2v-1.952a11.9 11.9 0 0 1 4.107 1.106l-.973 1.686 1.732 1 .971-1.682a12.089 12.089 0 0 1 3.006 3.005l-1.683.971 1 1.732 1.689-.974a11.9 11.9 0 0 1 1.11 4.108h-8.1a3.915 3.915 0 0 0 -.425-1.019l3.274-3.274-1.415-1.414-3.274 3.274a3.947 3.947 0 0 0 -2.019-.567 4 4 0 0 0 -3.858 3h-8.1a11.9 11.9 0 0 1 1.11-4.108l1.689.974 1-1.732-1.683-.971a12.089 12.089 0 0 1 3.005-3.005zm19.837 10.842a1 1 0 0 0 1-1 13.884 13.884 0 0 0 -.16-2h4.16v24h-36v-24h4.16a13.884 13.884 0 0 0 -.16 2 1 1 0 0 0 1 1zm-11.278-2h-3.444a1.983 1.983 0 0 1 3.444 0zm-23.722-4a1 1 0 0 1 1-1h8.37a13.864 13.864 0 0 0 -.78 2h-5.59a1 1 0 0 0 -1 1v26a1 1 0 0 0 1 1h38a1 1 0 0 0 1-1v-26a1 1 0 0 0 -1-1h-5.59a13.864 13.864 0 0 0 -.78-2h8.37a1 1 0 0 1 1 1v31h-44zm-6 49v-4h23v1a2 2 0 0 0 2 2h6a2 2 0 0 0 2-2v-1h23v4z" fill="#000000"/><path d="m10 50h2v2h-2z" fill="#000000"/><path d="m14 50h2v2h-2z" fill="#000000"/><path d="m18 50h28v2h-28z" fill="#000000"/><path d="m48 50h2v2h-2z" fill="#000000"/><path d="m52 50h2v2h-2z" fill="#000000"/><path d="m15 46h2v2h-2z" fill="#000000"/><path d="m11 46h2v2h-2z" fill="#000000"/><path d="m19 46h2v2h-2z" fill="#000000"/><path d="m23 46h2v2h-2z" fill="#000000"/><path d="m27 46h2v2h-2z" fill="#000000"/><path d="m31 46h2v2h-2z" fill="#000000"/><path d="m35 46h2v2h-2z" fill="#000000"/><path d="m39 46h2v2h-2z" fill="#000000"/><path d="m43 46h2v2h-2z" fill="#000000"/><path d="m47 46h2v2h-2z" fill="#000000"/><path d="m51 46h2v2h-2z" fill="#000000"/><path d="m26 33a1 1 0 0 0 1 1h2v2h2v-2h2v2h2v-2h2a1 1 0 0 0 1-1v-2h2v-2h-2v-2h2v-2h-2v-2a1 1 0 0 0 -1-1h-2v-2h-2v2h-2v-2h-2v2h-2a1 1 0 0 0 -1 1v2h-2v2h2v2h-2v2h2zm2-9h8v8h-8z" fill="#000000"/><path d="m34 25h-4a1 1 0 0 0 -1 1v4a1 1 0 0 0 1 1h4a1 1 0 0 0 1-1v-4a1 1 0 0 0 -1-1zm-1 4h-2v-2h2z" fill="#000000"/><path d="m42 25h2v2h-2z" fill="#000000"/><path d="m42 21h2v2h-2z" fill="#000000"/><path d="m20 25h2v2h-2z" fill="#000000"/><path d="m20 21h2v2h-2z" fill="#000000"/><path d="m16 23h2v2h-2z" fill="#000000"/><path d="m16 19h2v2h-2z" fill="#000000"/><path d="m46 23h2v2h-2z" fill="#000000"/><path d="m46 19h2v2h-2z" fill="#000000"/><path d="m58 30h2v2h-2z" fill="#000000"/><path d="m4 30h2v2h-2z" fill="#000000"/><path d="m4 24h2v2h-2z" fill="#000000"/><path d="m4 18h2v2h-2z" fill="#000000"/><path d="m58 24h2v2h-2z" fill="#000000"/><path d="m58 18h2v2h-2z" fill="#000000"/><path d="m57 5h2v2h-2z" fill="#000000"/><path d="m5 5h2v2h-2z" fill="#000000"/></svg>
