<?xml version="1.0"?>
<svg xmlns="http://www.w3.org/2000/svg" id="Capa_1" enable-background="new 0 0 480 480" height="512px" viewBox="0 0 480 480" width="512px"><path d="m448 64h-16v-32c-.02-17.665-14.335-31.98-32-32h-320c-17.665.02-31.98 14.335-32 32v32h-16c-17.665.02-31.98 14.335-32 32v272c.02 17.665 14.335 31.98 32 32h157.247l-19.2 64h-18.047v16h176v-16h-18.041l-4.784-16.015c27.036-.201 53.392-8.503 75.662-23.834l46.879 46.878c11.961 11.961 31.353 11.961 43.314.001 11.961-11.961 11.961-31.353 0-43.314l-27.716-27.716h4.686c17.665-.02 31.98-14.335 32-32v-272c-.02-17.665-14.335-31.98-32-32zm-416 16h16v240h16v-288c.01-8.832 7.168-15.99 16-16h320c8.832.01 15.99 7.168 16 16v176h16v-128h16c8.832.01 15.99 7.168 16 16v240h-26.121c1.414-7.922 2.124-15.953 2.121-24 0-74.991-61.01-136-136-136s-136 61.009-136 136c-.003 8.047.707 16.078 2.121 24h-154.121v-240c.01-8.832 7.168-15.989 16-16zm272 352c-66.274 0-120-53.726-120-120s53.726-120 120-120 120 53.726 120 120c-.075 66.243-53.757 119.925-120 120zm-288-64v-16h158.006c3.477 11.259 8.408 22.017 14.669 32h-156.675c-8.832-.01-15.99-7.168-16-16zm170.753 96 17.8-59.336c21.961 23.626 51.615 38.661 83.652 42.414l5.056 16.922zm277.247-14.627c0 8.078-6.548 14.627-14.627 14.627-3.879 0-7.6-1.541-10.343-4.284l-45.465-45.464c7.359-6.454 14.007-13.676 19.829-21.545l46.322 46.322c2.752 2.737 4.295 6.462 4.284 10.344zm0-81.373c-.01 8.832-7.168 15.99-16 16h-20.686l-5-5c4.863-8.549 8.78-17.602 11.68-27h30.006z" fill="#000000"/><path d="m88 232h19.313c1.86 6.583 4.496 12.921 7.852 18.882l-13.7 13.7c-3.124 3.124-3.124 8.189 0 11.314l22.64 22.64c3.124 3.124 8.189 3.124 11.314 0l13.7-13.7c2.5 1.4 5.059 2.684 7.664 3.827l6.428-14.652c-3.784-1.663-7.416-3.653-10.855-5.946-3.173-2.115-7.398-1.696-10.094 1l-12.5 12.5-11.328-11.325 12.5-12.5c2.7-2.697 3.118-6.926 1-10.1-5.11-7.647-8.677-16.219-10.5-25.234-.757-3.726-4.032-6.403-7.834-6.406h-17.6v-16h17.6c3.804 0 7.082-2.68 7.839-6.408 1.823-9.015 5.39-17.587 10.5-25.234 2.116-3.173 1.697-7.399-1-10.095l-12.5-12.5 11.326-11.326 12.5 12.5c2.696 2.696 6.921 3.115 10.094 1 7.648-5.11 16.22-8.677 25.236-10.5 3.726-.758 6.404-4.034 6.405-7.837v-17.6h16v17.6c0 3.804 2.679 7.082 6.407 7.84 9.016 1.823 17.588 5.39 25.236 10.5 3.173 2.115 7.398 1.696 10.094-1l12.5-12.5 11.326 11.326-12.5 12.5 11.315 11.314 18.16-18.16c3.124-3.124 3.124-8.189 0-11.314l-22.64-22.64c-3.124-3.124-8.189-3.124-11.314 0l-13.7 13.7c-5.961-3.357-12.3-5.993-18.884-7.853v-19.313c0-4.418-3.582-8-8-8h-32c-4.418 0-8 3.582-8 8v19.313c-6.583 1.86-12.921 4.496-18.882 7.852l-13.7-13.7c-3.124-3.124-8.189-3.124-11.314 0l-22.64 22.64c-3.124 3.124-3.124 8.189 0 11.314l13.7 13.7c-3.356 5.96-5.992 12.298-7.851 18.881h-19.313c-4.418 0-8 3.582-8 8v32c0 4.418 3.582 8 8 8z" fill="#000000"/><path d="m192 184c-13.255-.002-24.002 10.741-24.004 23.996-.002 8.574 4.571 16.498 11.995 20.786l8.014-13.847c-3.824-2.213-5.13-7.107-2.917-10.931s7.107-5.13 10.931-2.917c1.209.7 2.214 1.704 2.915 2.913l13.849-8.012c-4.302-7.408-12.216-11.973-20.783-11.988z" fill="#000000"/><path d="m192 152c-30.92-.006-55.991 25.054-55.998 55.974-.004 20.008 10.669 38.497 27.998 48.5l8-13.857c-19.129-11.029-25.694-35.477-14.665-54.605 11.029-19.129 35.477-25.694 54.605-14.665 5.384 3.105 9.971 7.422 13.395 12.608l13.336-8.841c-10.347-15.684-27.882-25.12-46.671-25.114z" fill="#000000"/><path d="m377.369 145.944 11.886-11.885-11.315-11.314-11.885 11.886c-4.267-2.826-9.039-4.804-14.055-5.824v-16.807h-16v16.807c-5.016 1.02-9.788 2.998-14.055 5.824l-11.885-11.886-11.315 11.314 11.886 11.885c-4.333 6.539-6.64 14.212-6.631 22.056h16c0-13.255 10.745-24 24-24s24 10.745 24 24v8h32v-16h-16.807c-1.02-5.016-2.998-9.788-5.824-14.056z" fill="#000000"/><path d="m304 208c-57.438 0-104 46.562-104 104s46.562 104 104 104 104-46.562 104-104c-.065-57.41-46.589-103.935-104-104zm0 192c-48.601 0-88-39.399-88-88s39.399-88 88-88 88 39.399 88 88c-.055 48.578-39.422 87.945-88 88z" fill="#000000"/><path d="m280 296h16v16h-16z" fill="#000000"/><path d="m312 296h16v16h-16z" fill="#000000"/><path d="m371.562 289.344-11.562 7.708v-1.052c0-30.928-25.072-56-56-56s-56 25.072-56 56v1.052l-11.562-7.708-8.876 13.312 20.438 13.625v3.719c.015 13.249 10.751 23.985 24 24v3.719l-20.438 13.625 8.876 13.312 11.562-7.708v1.052c0 4.418 3.582 8 8 8h48c4.418 0 8-3.582 8-8v-1.052l11.562 7.708 8.876-13.312-20.438-13.625v-3.719c13.249-.015 23.985-10.751 24-24v-3.719l20.438-13.625zm-27.562 30.656c-.005 4.416-3.584 7.995-8 8h-8c-4.418 0-8 3.582-8 8v24h-32v-24c0-4.418-3.582-8-8-8h-8c-4.416-.005-7.995-3.584-8-8v-24c0-22.091 17.909-40 40-40s40 17.909 40 40z" fill="#000000"/><path d="m80 32h16v16h-16z" fill="#000000"/><path d="m112 32h16v16h-16z" fill="#000000"/><path d="m144 32h16v16h-16z" fill="#000000"/><path d="m80.005 64h319.995v16h-319.995z" fill="#000000"/></svg>
