<?xml version="1.0"?>
<svg xmlns="http://www.w3.org/2000/svg" id="Capa_1" enable-background="new 0 0 480.001 480.001" height="512px" viewBox="0 0 480.001 480.001" width="512px"><path d="m433.941 32.241-128-32c-4.286-1.071-8.63 1.535-9.701 5.821-.159.634-.239 1.286-.239 1.94v24h-96v16h96v99.366c-5.043-2.216-10.491-3.362-16-3.366h-80v-48c.065-22.814-15.988-42.5-38.348-47.028-3.174-.666-6.409-.991-9.652-.972-26.497.03-47.97 21.503-48 48v32c.03 26.497 21.503 47.97 48 48v32h-96c-4.418 0-8 3.582-8 8v40c0 4.418 3.582 8 8 8h96v18.666l-91.077 37.949c-2.981 1.242-4.923 4.155-4.923 7.385v85.578l-14.656 21.984c-2.451 3.676-1.458 8.643 2.218 11.094 1.314.876 2.858 1.344 4.438 1.344h56c4.418 0 8-3.582 8-8v-82.452l50.842-19.029 6.627-2.519h16.4l64.265 69.434c1.513 1.635 3.639 2.565 5.866 2.566h40v24h-128v-72h-16v80c0 4.418 3.582 8 8 8h136v24c0 4.418 3.582 8 8 8 .654 0 1.305-.08 1.94-.239l128-32c3.561-.89 6.06-4.09 6.06-7.761v-400c0-3.671-2.498-6.871-6.06-7.761zm-137.94 319.761h-12.687l-35.313-35.313v-116.687h16v72c.02 17.665 14.335 31.98 32 32zm0-64c-8.832-.01-15.99-7.168-16-16h32v16zm0-121.844v89.844h-16v-64c0-4.418-3.582-8-8-8h-26.333c-2.6-8.923-7.443-17.031-14.067-23.55-.153-.155-.314-.3-.468-.45h48.868c5.91.007 11.609 2.2 16 6.156zm-152-62.156c4.418 0 8 3.582 8 8s-3.582 8-8 8h-24v-16zm-22.987 32h22.987c13.255 0 24-10.745 24-24s-10.745-24-24-24h-22.987c3.666-14.118 16.401-23.981 30.987-24 2.113-.02 4.222.187 6.291.615l.109.023c14.935 2.987 25.665 16.131 25.6 31.362v48h-4c-10.811.01-20.652 6.236-25.293 16h-2.707c-14.586-.019-27.321-9.882-30.987-24zm-57.013 88h16v24h-16zm32 0h64c4.418 0 8-3.582 8-8v-44c0-6.627 5.373-12 12-12s12 5.373 12 12v52c-.015 13.248-10.752 23.985-24 24h-72zm112 0v-52c.001-3.181-.542-6.338-1.606-9.336 5.226 2.017 9.964 5.12 13.9 9.106 5.903 5.787 9.789 13.319 11.083 21.484.012.074.024.146.038.219.396 2.153.591 4.338.585 6.527v80h-64v-16c22.081-.025 39.975-17.919 40-40zm51.5 168-64.265-69.434c-1.515-1.637-3.645-2.567-5.875-2.566h-21.36c-.971 0-1.934.177-2.842.522l-7.963 3.026-56 20.96c-3.124 1.17-5.195 4.156-5.195 7.492v80h-33.052l7.708-11.562c.876-1.314 1.344-2.858 1.344-4.438v-82.667l89.6-37.333h70.4v24c0 2.122.843 4.157 2.343 5.657l40 40c1.5 1.5 3.535 2.343 5.657 2.343h16v24zm52.5-88h8c4.418 0 8-3.582 8-8v-32c0-4.418-3.582-8-8-8h-8v-237.754l112 28v387.508l-112 28z" fill="#000000"/></svg>
